<svg width="71" height="71" viewBox="0 0 71 71" fill="none" xmlns="http://www.w3.org/2000/svg">
  <path
    d="M35.5 68.0047C53.4518 68.0047 68.0047 53.4518 68.0047 35.5C68.0047 17.5481 53.4518 2.9953 35.5 2.9953C17.5482 2.9953 2.99532 17.5481 2.99532 35.5C2.99532 53.4518 17.5482 68.0047 35.5 68.0047Z"
    fill="white" />
  <path
    d="M68.6703 35.5C68.6703 34.7234 68.8922 23.4078 62.2359 16.0859C61.9031 15.4203 60.5719 12.7578 56.0234 9.54063C53.0281 7.21094 49.9219 5.54688 49.5891 5.325C49.2563 5.10313 43.7094 2.21875 37.0531 2.21875C36.4984 2.21875 36.0547 2.21875 35.5 2.32969C30.3969 2.21875 25.7375 3.55 22.2984 5.10312C18.7484 6.65625 16.4188 8.20938 16.1969 8.43125C12.425 10.5391 5.21407 18.9703 4.65938 23.5188C2.32969 26.4031 0.443757 39.6047 4.65938 47.5922C7.65469 58.6859 18.7484 64.2328 19.6359 64.6766C20.1906 65.0094 26.1813 68.7812 33.6141 68.7812H34.6125C35.2781 68.8922 35.8328 68.8922 36.4984 68.8922C44.4859 68.8922 56.4672 63.2344 58.9078 58.7969C65.7859 53.6937 69.3359 40.825 68.6703 35.5ZM19.7469 52.2516C16.5297 47.1484 14.7547 40.3813 14.3109 38.8281C15.3094 37.275 20.3016 29.9531 23.075 27.7344C24.6281 28.0672 31.3953 29.2875 37.7188 30.3969C38.4953 32.5047 42.0453 41.4906 43.0438 45.0406C41.9344 46.3719 37.6078 51.3641 33.3922 55.2469C28.8438 55.3578 21.1891 52.6953 19.7469 52.2516ZM59.6844 16.1969C59.6844 16.6406 59.5734 18.4156 58.6859 20.5234C57.0219 19.6359 52.8063 17.8609 46.9266 17.5281C46.0391 16.1969 42.7109 11.6484 37.4969 8.54219C38.1625 7.1 39.1609 5.43594 39.8266 4.88125C40.0484 4.88125 40.2703 4.77031 40.7141 4.77031C43.4875 4.77031 48.3688 6.65625 48.8125 6.76719C49.2563 6.98906 58.0203 11.6484 59.6844 16.1969ZM13.0906 37.7188C9.31876 37.0531 6.98907 35.9437 6.32344 35.5C4.88126 30.3969 6.10157 24.85 6.21251 24.0734C7.65469 21.6328 11.5375 15.1984 14.2 13.9781C16.8625 13.4234 20.3016 14.0891 21.6328 14.4219C21.5219 16.1969 21.3 21.1891 21.9656 26.5141C19.0813 28.9547 14.3109 35.9438 13.0906 37.7188ZM35.1672 3.88281C36.0547 3.99375 37.275 4.10469 38.1625 4.4375C37.275 5.54688 36.3875 7.21094 36.0547 8.09844C34.2797 8.43125 27.7344 9.65156 22.5203 12.9797C21.5219 12.7578 18.3047 11.9813 15.3094 12.2031C16.0859 10.7609 17.1953 9.7625 17.3063 9.65156C17.6391 9.31875 25.5156 3.77188 35.1672 3.88281ZM56.3563 46.15C55.025 46.15 50.0328 45.8172 44.5969 44.4859C43.5984 40.825 40.0484 31.8391 39.2719 29.7312C42.7109 24.85 46.0391 20.3016 46.9266 18.9703C53.25 19.4141 57.6875 21.7438 58.575 22.1875C62.2359 28.0672 63.0125 34.0578 63.1234 35.0563C61.1266 41.1578 57.3547 45.2625 56.3563 46.15ZM4.10469 31.6172C4.21563 33.0594 4.43751 34.5016 4.88126 35.9438C4.54844 36.9422 4.21563 37.9406 4.10469 38.9391C3.77188 36.3875 3.77188 33.8359 4.10469 31.6172ZM20.5234 63.2344C17.75 61.9031 15.6422 58.7969 14.7547 57.5766C16.4188 55.9125 18.5266 54.3594 19.3031 53.8047C21.0781 54.4703 28.5109 56.9109 33.2813 56.9109C34.0578 58.0203 36.7203 61.3484 39.9375 64.0109C37.9406 66.0078 35.0563 66.8953 34.5016 67.1172C26.9578 67.3391 20.5234 63.2344 20.5234 63.2344ZM38.6063 67.0062C39.6047 66.4516 40.7141 65.675 41.6016 64.6766C43.0438 64.4547 49.2563 63.4563 54.8031 59.3516C55.1359 59.3516 55.8016 59.4625 56.4672 59.4625C53.0281 62.6797 44.8188 66.3406 38.6063 67.0062ZM55.6906 57.6875C57.6875 52.4734 57.5766 48.4797 57.4656 47.2594C58.575 46.15 62.3469 42.1562 64.4547 36.0547C65.5641 36.2766 66.3406 36.4984 66.6734 36.7203C66.7844 37.1641 67.0063 38.1625 66.8953 39.7156C66.0078 45.2625 63.1234 53.6937 57.9094 57.3547C57.3547 57.6875 56.4672 57.7984 55.6906 57.6875Z"
    fill="url(#paint0_linear_2050_20)" />
  <defs>
    <linearGradient id="paint0_linear_2050_20" x1="2.15588" y1="35.5555" x2="68.7496" y2="35.5555"
      gradientUnits="userSpaceOnUse">
      <stop stop-color="#434343" />
      <stop offset="1" />
    </linearGradient>
  </defs>
</svg>