<svg width="73" height="72" viewBox="0 0 73 72" fill="none" xmlns="http://www.w3.org/2000/svg">
  <path
    d="M13.0216 0.0293836C10.4033 0.0390711 7.9147 0.955946 5.8486 2.43173C0.55954 6.20985 -2.02718 14.1263 2.92892 20.8642C6.83126 26.1697 5.14063 33.1031 1.10251 37.0167L3.10938 39.1163C8.10532 34.2741 10.1542 25.7347 5.29688 19.1309C1.24329 13.62 3.35345 7.75907 7.48907 4.8047C9.5572 3.32782 12.1434 2.65579 14.6963 3.15938C17.1441 3.64188 19.6447 5.21626 21.8936 8.56454L12.66 13.9111L16.4295 20.4542C8.70173 30.3542 7.28782 44.3691 13.9442 55.9328C22.6895 71.1256 42.0505 76.3334 57.1864 67.5684C72.3224 58.8034 77.4992 39.3825 68.7536 24.1895C62.1099 12.6474 49.3422 6.8672 36.952 8.5986L33.1728 2.03126L24.4181 7.1047C21.8009 3.14563 18.5634 0.893446 15.2481 0.239071C14.5147 0.0958035 13.7689 0.0255647 13.0216 0.0293836ZM36.088 14.8778C50.6969 21.6747 53.513 30.7544 47.7627 41.3231C53.0627 38.4809 55.3533 34.2909 53.1242 28.2031C58.2414 31.6402 60.9435 38.4797 60.8292 45.8594C60.6774 55.6797 55.6167 61.8325 49.1789 64.4578C50.518 62.4103 51.3175 59.8444 51.3175 57.0556C51.3175 50.7624 47.2575 45.5909 42.0649 45C44.1563 46.2664 45.5511 48.563 45.5511 51.1866C45.5511 55.1781 42.3163 58.4131 38.3245 58.4131C35.0167 58.4131 32.2302 56.1916 31.3714 53.1592C31.0081 54.4261 30.824 55.7376 30.8245 57.0555C30.8245 59.6195 31.5003 61.9967 32.6508 63.955C26.5224 61.0535 21.7749 54.9769 21.5766 45.8592C21.4214 38.7233 24.1653 34.0208 30.4388 30.5858C28.0703 35.0191 28.9941 40.1694 31.5178 42.3241C29.8584 31.4806 46.3284 25.6122 36.0881 14.8875L36.088 14.8778Z"
    fill="url(#paint0_linear_2050_9)" />
  <defs>
    <linearGradient id="paint0_linear_2050_9" x1="36.6429" y1="0.0292358" x2="36.6429" y2="71.8242"
      gradientUnits="userSpaceOnUse">
      <stop stop-color="#D2A245" />
      <stop offset="0.16" stop-color="#F7CF5E" />
      <stop offset="0.58" stop-color="#9E6823" />
      <stop offset="1" stop-color="#C79F4C" />
    </linearGradient>
  </defs>
</svg>